# xmcd
#
# Track frame offsets: 
#        150
#        17139
#        69182
#        85157
#        108920
#        128873
#        160018
#        178611
#        200135
#        221907
#        241119
#        262021
#        279442
#        299766
#        321536
#        341482
#
# Disc length: 4761 seconds
#
# Revision: 4
# Processed by: cddbd v1.5.2PL0 Copyright (c) Steve Scherf et al.
# Submitted via: ExactAudioCopy v1.3
#
DISCID=f6129710
DTITLE=Various Artist - Akella Presents - Rockin' Blues - vol.19  CD2  New!
DYEAR=2013
DGENRE=Blues
TTITLE0=GUITAR PETE - Mustang Sally
TTITLE1=BIG MIKE GRIFFIN - The Blues Ain't Never Gonna Die
TTITLE2=PEPE AHLQVIST H.A.R.P - Rhythm Guitar
TTITLE3=TIM WAGONER and BILL BLUE YOUNDER - Make It Rain
TTITLE4=STEDDY EDDY - Blue Train
TTITLE5=LITTLE JOHN CHRISLEY - Big Bad Boogie
TTITLE6=TOMBSTONE BULLETS - Murdered By Love
TTITLE7=COREY STEVENS - Blue Drops Of Rain
TTITLE8=METROPOLITIAN BLUES ALL-STARS - Storm Comin' Thru
TTITLE9=MICK CLARKE - Solid Many Times
TTITLE10=GARY SMITH - I Can't Seam To Snake These Blues
TTITLE11=KENNY LEE - Country Boy
TTITLE12=BIG SUGAR - Come A Little Closer...Now Come
TTITLE13=The BEAT DADDYS - Rainin' in the Real World
TTITLE14=TOSCHO - The Blues
TTITLE15=The PIRATES - Hey Mary
EXTD=
EXTT0=
EXTT1=
EXTT2=
EXTT3=
EXTT4=
EXTT5=
EXTT6=
EXTT7=
EXTT8=
EXTT9=
EXTT10=
EXTT11=
EXTT12=
EXTT13=
EXTT14=
EXTT15=
PLAYORDER=
